<svg xmlns="http://www.w3.org/2000/svg" viewBox="0 0 384.97 384.97"><title>circle-arrow</title><path d="M192.49,0C86.18,0,0,86.17,0,192.49S86.18,385,192.49,385,385,298.79,385,192.49,298.8,0,192.49,0Zm0,360.91c-92.87,0-168.42-75.55-168.42-168.42S99.61,24.06,192.49,24.06s168.8,75.55,168.8,168.42S285.36,360.91,192.49,360.91Z" fill="#fff"/><path d="M268.28,149.09l-75.61,74.53-75.61-74.54a12.23,12.23,0,0,0-17.19,0,12,12,0,0,0,0,17l84.2,83a12.48,12.48,0,0,0,17.19,0l84.2-83a12,12,0,0,0,0-17A12.24,12.24,0,0,0,268.28,149.09Z" fill="#fff"/></svg>